<svg version="1.1" id="Capa_1" xmlns="http://www.w3.org/2000/svg" x="0px" y="0px" viewBox="0 0 512 512" style="enable-background:new 0 0 512 512;" xml:space="preserve"><g>	<g>		<path d="M210.932,261.84c-3.715,0-6.775,1.003-6.993,4.11c-0.328,4.21-1.202,10.725-11.145,10.725			c-7.54,0-11.692-3.708-11.692-11.527v-27.966c-0.001-7.818,4.151-11.527,11.472-11.527c10.38,0,11.145,6.816,11.364,9.923			c0.109,3.007,3.06,4.11,7.103,4.11c4.807,0,7.102-1.203,7.102-6.415c0-11.627-10.817-19.045-26.005-19.045			c-13.768,0-25.241,6.215-25.241,22.954v27.966c0,16.74,11.364,22.954,25.131,22.954c15.298,0,26.115-7.718,26.115-19.847			C218.143,263.143,215.849,261.84,210.932,261.84z"/>	</g></g><g>	<g>		<path d="M255.073,214.228H233.11c-3.278,0-5.354,1.904-5.354,4.01v65.154c0,2.706,3.497,4.11,7.102,4.11			c3.496,0,7.102-1.404,7.102-4.11v-23.255h12.238c14.424,0,25.678-6.315,25.678-22.754v-0.602			C279.876,220.342,268.949,214.228,255.073,214.228z M265.671,238.386c0,7.819-4.371,11.528-11.473,11.528H241.96v-24.259h12.238			c7.103,0,11.473,3.709,11.473,11.528V238.386z"/>	</g></g><g>	<g>		<path d="M333.633,214.228c-3.606,0-7.102,1.203-7.102,4.01v46.911c0,7.819-4.48,11.527-12.019,11.527			c-7.54,0-12.02-3.708-12.02-11.527v-46.911c0-2.807-3.606-4.01-7.102-4.01c-3.606,0-7.103,1.203-7.103,4.01v46.911			c0,16.74,11.473,22.954,26.224,22.954c14.642,0,26.224-6.215,26.224-22.954v-46.911			C340.735,215.431,337.129,214.228,333.633,214.228z"/>	</g></g><g>	<g>		<circle cx="67" cy="63.63" r="8.05"/>	</g></g><g>	<g>		<circle cx="101.24" cy="63.63" r="8.05"/>	</g></g><g>	<g>		<circle cx="135.49" cy="63.63" r="8.05"/>	</g></g><g>	<g>		<circle cx="169.73" cy="63.63" r="8.05"/>	</g></g><g>	<g>		<circle cx="203.97" cy="63.63" r="8.05"/>	</g></g><g>	<g>		<circle cx="238.21" cy="63.63" r="8.05"/>	</g></g><g>	<g>		<circle cx="272.45" cy="63.63" r="8.05"/>	</g></g><g>	<g>		<circle cx="306.69" cy="63.63" r="8.05"/>	</g></g><g>	<g>		<circle cx="340.94" cy="63.63" r="8.05"/>	</g></g><g>	<g>		<circle cx="375.18" cy="63.63" r="8.05"/>	</g></g><g>	<g>		<circle cx="409.42" cy="63.63" r="8.05"/>	</g></g><g>	<g>		<circle cx="443.66" cy="63.63" r="8.05"/>	</g></g><g>	<g>		<circle cx="67" cy="98.31" r="8.05"/>	</g></g><g>	<g>		<circle cx="101.24" cy="98.31" r="8.05"/>	</g></g><g>	<g>		<circle cx="135.49" cy="98.31" r="8.05"/>	</g></g><g>	<g>		<circle cx="169.73" cy="98.31" r="8.05"/>	</g></g><g>	<g>		<circle cx="203.97" cy="98.31" r="8.05"/>	</g></g><g>	<g>		<circle cx="238.21" cy="98.31" r="8.05"/>	</g></g><g>	<g>		<circle cx="272.45" cy="98.31" r="8.05"/>	</g></g><g>	<g>		<circle cx="306.69" cy="98.31" r="8.05"/>	</g></g><g>	<g>		<circle cx="340.94" cy="98.31" r="8.05"/>	</g></g><g>	<g>		<circle cx="375.18" cy="98.31" r="8.05"/>	</g></g><g>	<g>		<circle cx="409.42" cy="98.31" r="8.05"/>	</g></g><g>	<g>		<circle cx="443.66" cy="98.31" r="8.05"/>	</g></g><g>	<g>		<circle cx="67" cy="133.3" r="8.05"/>	</g></g><g>	<g>		<circle cx="101.24" cy="133.3" r="8.05"/>	</g></g><g>	<g>		<circle cx="409.42" cy="133.3" r="8.05"/>	</g></g><g>	<g>		<circle cx="443.66" cy="133.3" r="8.05"/>	</g></g><g>	<g>		<circle cx="67" cy="167.98" r="8.05"/>	</g></g><g>	<g>		<circle cx="101.24" cy="167.98" r="8.05"/>	</g></g><g>	<g>		<circle cx="409.42" cy="167.98" r="8.05"/>	</g></g><g>	<g>		<circle cx="443.66" cy="167.98" r="8.05"/>	</g></g><g>	<g>		<circle cx="67" cy="202.97" r="8.05"/>	</g></g><g>	<g>		<circle cx="101.24" cy="202.97" r="8.05"/>	</g></g><g>	<g>		<circle cx="409.42" cy="202.97" r="8.05"/>	</g></g><g>	<g>		<circle cx="443.66" cy="202.97" r="8.05"/>	</g></g><g>	<g>		<circle cx="67" cy="237.65" r="8.05"/>	</g></g><g>	<g>		<circle cx="101.24" cy="237.65" r="8.05"/>	</g></g><g>	<g>		<circle cx="409.42" cy="237.65" r="8.05"/>	</g></g><g>	<g>		<circle cx="443.66" cy="237.65" r="8.05"/>	</g></g><g>	<g>		<circle cx="67" cy="272.64" r="8.05"/>	</g></g><g>	<g>		<circle cx="101.24" cy="272.64" r="8.05"/>	</g></g><g>	<g>		<circle cx="409.42" cy="272.64" r="8.05"/>	</g></g><g>	<g>		<circle cx="443.66" cy="272.64" r="8.05"/>	</g></g><g>	<g>		<circle cx="67" cy="307.32" r="8.05"/>	</g></g><g>	<g>		<circle cx="101.24" cy="307.32" r="8.05"/>	</g></g><g>	<g>		<circle cx="409.42" cy="307.32" r="8.05"/>	</g></g><g>	<g>		<circle cx="443.66" cy="307.32" r="8.05"/>	</g></g><g>	<g>		<circle cx="67" cy="342.31" r="8.05"/>	</g></g><g>	<g>		<circle cx="101.24" cy="342.31" r="8.05"/>	</g></g><g>	<g>		<circle cx="409.42" cy="342.31" r="8.05"/>	</g></g><g>	<g>		<circle cx="443.66" cy="342.31" r="8.05"/>	</g></g><g>	<g>		<circle cx="67" cy="376.98" r="8.05"/>	</g></g><g>	<g>		<circle cx="101.24" cy="376.98" r="8.05"/>	</g></g><g>	<g>		<circle cx="409.42" cy="376.98" r="8.05"/>	</g></g><g>	<g>		<circle cx="443.66" cy="376.98" r="8.05"/>	</g></g><g>	<g>		<circle cx="67" cy="411.98" r="8.05"/>	</g></g><g>	<g>		<circle cx="101.24" cy="411.98" r="8.05"/>	</g></g><g>	<g>		<circle cx="135.49" cy="411.98" r="8.05"/>	</g></g><g>	<g>		<circle cx="169.73" cy="411.98" r="8.05"/>	</g></g><g>	<g>		<circle cx="203.97" cy="411.98" r="8.05"/>	</g></g><g>	<g>		<circle cx="238.21" cy="411.98" r="8.05"/>	</g></g><g>	<g>		<circle cx="272.45" cy="411.98" r="8.05"/>	</g></g><g>	<g>		<circle cx="306.69" cy="411.98" r="8.05"/>	</g></g><g>	<g>		<circle cx="340.94" cy="411.98" r="8.05"/>	</g></g><g>	<g>		<circle cx="375.18" cy="411.98" r="8.05"/>	</g></g><g>	<g>		<circle cx="409.42" cy="411.98" r="8.05"/>	</g></g><g>	<g>		<circle cx="443.66" cy="411.98" r="8.05"/>	</g></g><g>	<g>		<circle cx="67" cy="446.65" r="8.05"/>	</g></g><g>	<g>		<circle cx="101.24" cy="446.65" r="8.05"/>	</g></g><g>	<g>		<circle cx="135.49" cy="446.65" r="8.05"/>	</g></g><g>	<g>		<circle cx="169.73" cy="446.65" r="8.05"/>	</g></g><g>	<g>		<circle cx="203.97" cy="446.65" r="8.05"/>	</g></g><g>	<g>		<circle cx="238.21" cy="446.65" r="8.05"/>	</g></g><g>	<g>		<circle cx="272.45" cy="446.65" r="8.05"/>	</g></g><g>	<g>		<circle cx="306.69" cy="446.65" r="8.05"/>	</g></g><g>	<g>		<circle cx="340.94" cy="446.65" r="8.05"/>	</g></g><g>	<g>		<circle cx="375.18" cy="446.65" r="8.05"/>	</g></g><g>	<g>		<circle cx="409.42" cy="446.65" r="8.05"/>	</g></g><g>	<g>		<circle cx="443.66" cy="446.65" r="8.05"/>	</g></g><g>	<g>		<path d="M372.397,122.206H139.604c-9.593,0-17.397,7.804-17.397,17.397V236c0,4.142,3.358,7.5,7.5,7.5c4.142,0,7.5-3.358,7.5-7.5			v-96.397c0-1.322,1.076-2.397,2.397-2.397h232.793c1.322,0,2.397,1.075,2.397,2.397V236c0,4.142,3.358,7.5,7.5,7.5			c4.142,0,7.5-3.358,7.5-7.5v-96.397C389.794,130.01,381.99,122.206,372.397,122.206z"/>	</g></g><g>	<g>		<path d="M382.294,268.5c-4.142,0-7.5,3.358-7.5,7.5v45.787c0,1.809-0.737,3.577-2.021,4.85l-46.582,46.178			c-1.287,1.276-2.995,1.979-4.808,1.979h-181.78c-1.322,0-2.397-1.075-2.397-2.397V276c0-4.142-3.358-7.5-7.5-7.5			c-4.142,0-7.5,3.358-7.5,7.5v96.397c0,9.593,7.805,17.397,17.397,17.397h181.78c5.795,0,11.253-2.247,15.368-6.327l46.582-46.178			c4.106-4.07,6.461-9.721,6.461-15.502V276C389.794,271.858,386.437,268.5,382.294,268.5z"/>	</g></g><g>	<g>		<path d="M504.5,146.815c4.142,0,7.5-3.358,7.5-7.5c0-4.142-3.358-7.5-7.5-7.5h-21.579V88.473H504.5c4.142,0,7.5-3.358,7.5-7.5			c0-4.142-3.358-7.5-7.5-7.5h-21.579V58.72c0-16.344-13.297-29.641-29.641-29.641h-14.753V7.5c0-4.142-3.358-7.5-7.5-7.5			c-4.142,0-7.5,3.358-7.5,7.5v21.579h-43.342V7.5c0-4.142-3.358-7.5-7.5-7.5c-4.142,0-7.5,3.358-7.5,7.5v21.579h-43.343V7.5			c0-4.142-3.358-7.5-7.5-7.5c-4.142,0-7.5,3.358-7.5,7.5v21.579H263.5V7.5c0-4.142-3.358-7.5-7.5-7.5c-4.142,0-7.5,3.358-7.5,7.5			v21.579h-43.342V7.5c0-4.142-3.358-7.5-7.5-7.5c-4.142,0-7.5,3.358-7.5,7.5v21.579h-43.343V7.5c0-4.142-3.358-7.5-7.5-7.5			c-4.142,0-7.5,3.358-7.5,7.5v21.579H88.473V7.5c0-4.142-3.358-7.5-7.5-7.5c-4.142,0-7.5,3.358-7.5,7.5v21.579H58.72			c-16.344,0-29.641,13.297-29.641,29.641v14.753H7.5c-4.142,0-7.5,3.358-7.5,7.5c0,4.142,3.358,7.5,7.5,7.5h21.579v43.342H7.5			c-4.142,0-7.5,3.358-7.5,7.5c0,4.142,3.358,7.5,7.5,7.5h21.579v43.343H7.5c-4.142,0-7.5,3.358-7.5,7.5c0,4.142,3.358,7.5,7.5,7.5			h21.579V248.5H7.5c-4.142,0-7.5,3.358-7.5,7.5c0,4.142,3.358,7.5,7.5,7.5h21.579v43.342H7.5c-4.142,0-7.5,3.358-7.5,7.5			c0,4.142,3.358,7.5,7.5,7.5h21.579v43.343H7.5c-4.142,0-7.5,3.358-7.5,7.5c0,4.142,3.358,7.5,7.5,7.5h21.579v43.342H7.5			c-4.142,0-7.5,3.358-7.5,7.5c0,4.142,3.358,7.5,7.5,7.5h21.579v14.753c0,16.344,13.297,29.641,29.641,29.641h14.753V504.5			c0,4.142,3.358,7.5,7.5,7.5c4.142,0,7.5-3.358,7.5-7.5v-21.579h43.342V504.5c0,4.142,3.358,7.5,7.5,7.5c4.142,0,7.5-3.358,7.5-7.5			v-21.579h43.343V504.5c0,4.142,3.358,7.5,7.5,7.5c4.142,0,7.5-3.358,7.5-7.5v-21.579H248.5V504.5c0,4.142,3.358,7.5,7.5,7.5			c4.142,0,7.5-3.358,7.5-7.5v-21.579h43.342V504.5c0,4.142,3.358,7.5,7.5,7.5c4.142,0,7.5-3.358,7.5-7.5v-21.579h43.343V504.5			c0,4.142,3.358,7.5,7.5,7.5c4.142,0,7.5-3.358,7.5-7.5v-21.579h43.342V504.5c0,4.142,3.358,7.5,7.5,7.5c4.142,0,7.5-3.358,7.5-7.5			v-21.579h14.753c16.344,0,29.641-13.297,29.641-29.641v-14.753H504.5c4.142,0,7.5-3.358,7.5-7.5c0-4.142-3.358-7.5-7.5-7.5			h-21.579v-43.342H504.5c4.142,0,7.5-3.358,7.5-7.5c0-4.142-3.358-7.5-7.5-7.5h-21.579v-43.343H504.5c4.142,0,7.5-3.358,7.5-7.5			c0-4.142-3.358-7.5-7.5-7.5h-21.579V263.5H504.5c4.142,0,7.5-3.358,7.5-7.5c0-4.142-3.358-7.5-7.5-7.5h-21.579v-43.342H504.5			c4.142,0,7.5-3.358,7.5-7.5c0-4.142-3.358-7.5-7.5-7.5h-21.579v-43.343H504.5z M467.921,80.963c0,0.003,0,0.006,0,0.01			c0,0.004,0,0.006,0,0.01v58.323c0,0.003,0,0.006,0,0.01c0,0.004,0,0.006,0,0.01v58.323c0,0.003,0,0.006,0,0.01			c0,0.004,0,0.006,0,0.01v58.323c0,0.003,0,0.006,0,0.01c0,0.004,0,0.006,0,0.01v58.323c0,0.003,0,0.006,0,0.01			c0,0.004,0,0.006,0,0.01v58.323c0,0.003,0,0.006,0,0.01c0,0.004,0,0.006,0,0.01v58.323c0,0.003,0,0.006,0,0.01			c0,0.004,0,0.006,0,0.01v22.243c0,8.073-6.568,14.641-14.641,14.641H58.72c-8.073,0-14.641-6.568-14.641-14.641V58.72			c0-8.073,6.568-14.641,14.641-14.641h394.56c8.073,0,14.641,6.568,14.641,14.641V80.963z"/>	</g></g></svg>
