<svg viewBox="0 0 512 512" xmlns="http://www.w3.org/2000/svg"><g id="Outline"><path d="m136 256a120 120 0 1 0 120 120 120.136 120.136 0 0 0 -120-120zm0 224a104 104 0 1 1 104-104 104.118 104.118 0 0 1 -104 104z"/><path d="m128 288h16v16h-16z"/><path d="m88 298.718h15.999v16h-15.999z" transform="matrix(.866 -.5 .5 .866 -140.497 89.092)"/><path d="m58.718 328h16v16h-16z" transform="matrix(.5 -.866 .866 .5 -257.626 225.78)"/><path d="m48 368h16v16h-16z"/><path d="m58.718 408h16v16h-16z" transform="matrix(.866 -.5 .5 .866 -199.061 89.092)"/><path d="m88 437.283h16v15.999h-16z" transform="matrix(.5 -.866 .866 .5 -337.622 305.767)"/><path d="m128 448h16v16h-16z"/><path d="m168 437.282h15.999v16h-15.999z" transform="matrix(.866 -.5 .5 .866 -199.061 147.656)"/><path d="m197.282 408h16v16h-16z" transform="matrix(.5 -.866 .866 .5 -257.626 385.78)"/><path d="m208 368h16v16h-16z"/><path d="m197.282 328h16v16h-16z" transform="matrix(.866 -.5 .5 .866 -140.497 147.656)"/><path d="m168 298.718h16v15.999h-16z" transform="matrix(.5 -.866 .866 .5 -177.625 305.769)"/><path d="m144 372.687v-44.687h-16v48a8 8 0 0 0 2.343 5.657l32 32 11.314-11.314z"/><path d="m328 256a72.189 72.189 0 0 1 -57.592 70.56l3.184 15.68a88.009 88.009 0 1 0 -103.831-103.831l15.679 3.182a72.009 72.009 0 0 1 142.56 14.409z"/><path d="m137.215 238.867 15.838 2.266a104 104 0 1 1 117.814 117.813l2.266 15.839a120 120 0 1 0 -135.918-135.918z"/><path d="m181.822 93.584h16v16h-16z" transform="matrix(.919 -.394 .394 .919 -24.668 82.99)"/><path d="m92.016 185.606h16v16h-16z" transform="matrix(.371 -.928 .928 .371 -116.888 214.563)"/><path d="m314.178 402.417h16v16h-16z" transform="matrix(.919 -.394 .394 .919 -135.623 160.1)"/><path d="m403.984 310.394h16v16h-16z" transform="matrix(.371 -.928 .928 .371 -36.647 582.658)"/><path d="m402.416 181.821h16.001v16h-16.001z" transform="matrix(.919 -.394 .394 .919 -41.59 177.012)"/><path d="m472.131 299.414-41.478-21.6a177.357 177.357 0 0 0 -.578-47.877l40.933-22.6a8 8 0 0 0 3.486-10.154l-25.211-58.833a8 8 0 0 0 -9.758-4.479l-44.618 14.057a176.264 176.264 0 0 0 -34.253-33.428l12.964-44.945a8 8 0 0 0 -4.716-9.645l-59.423-23.773a8 8 0 0 0 -10.066 3.732l-21.6 41.478a177.951 177.951 0 0 0 -47.877.578l-22.6-40.933a8 8 0 0 0 -10.154-3.486l-58.832 25.211a8 8 0 0 0 -4.479 9.758l14.058 44.617a176.25 176.25 0 0 0 -33.429 34.255l-44.948-12.965a8 8 0 0 0 -9.646 4.715l-23.769 59.423a8 8 0 0 0 3.732 10.066l41.478 21.6c-.553 4.462-.938 8.96-1.15 13.433l15.983.756a161.818 161.818 0 0 1 1.777-17.431 8 8 0 0 0 -4.208-8.338l-40.068-20.866 18.392-45.978 43.42 12.525a8 8 0 0 0 8.8-3.139 160.46 160.46 0 0 1 37.673-38.6 8 8 0 0 0 2.923-8.872l-13.582-43.105 45.516-19.507 21.836 39.542a8 8 0 0 0 8.439 4 162.108 162.108 0 0 1 53.956-.652 8.016 8.016 0 0 0 8.338-4.208l20.868-40.065 45.978 18.392-12.524 43.42a8 8 0 0 0 3.138 8.8 160.438 160.438 0 0 1 38.6 37.673 8 8 0 0 0 8.873 2.923l43.106-13.581 19.507 45.516-39.538 21.836a8 8 0 0 0 -4 8.438 161.405 161.405 0 0 1 .651 53.956 8 8 0 0 0 4.208 8.337l40.068 20.869-18.392 45.978-43.42-12.525a8 8 0 0 0 -8.8 3.139 160.46 160.46 0 0 1 -37.673 38.6 8 8 0 0 0 -2.923 8.872l13.581 43.106-45.516 19.507-21.836-39.542a7.992 7.992 0 0 0 -8.439-4 161.5 161.5 0 0 1 -21.279 2.43l.754 15.982a177.5 177.5 0 0 0 17.689-1.728l22.605 40.933a8 8 0 0 0 10.154 3.486l58.825-25.211a8 8 0 0 0 4.479-9.758l-14.058-44.617a176.25 176.25 0 0 0 33.422-34.259l44.944 12.965a8 8 0 0 0 9.646-4.715l23.769-59.423a8 8 0 0 0 -3.728-10.066z"/><path d="m310.394 92.016h16v16h-16z" transform="matrix(.371 -.928 .928 .371 107.294 358.501)"/></g></svg>
