<svg id="Layer_3" enable-background="new 0 0 64 64" viewBox="0 0 64 64"  xmlns="http://www.w3.org/2000/svg"><g><path d="m62 34h-60c-.552 0-1 .447-1 1v4c0 .553.448 1 1 1h1c.551 0 1 .448 1 1s-.449 1-1 1h-1c-.552 0-1 .447-1 1v10c0 .553.448 1 1 1h25c.552 0 1-.447 1-1v-2c0-.552.449-1 1-1s1 .448 1 1v2c0 .553.448 1 1 1h31c.552 0 1-.447 1-1v-10c0-.553-.448-1-1-1h-1c-.551 0-1-.448-1-1s.449-1 1-1h1c.552 0 1-.447 1-1v-4c0-.553-.448-1-1-1zm-39 17v1h-1v-1zm-3 1h-1v-1h1zm-3 0h-1v-1h1zm-3 0h-1v-1h1zm-3 0h-1v-1h1zm15 0h-1v-1h1zm6-1h1v1h-1zm22 1h-1v-1h1zm-3 0h-1v-1h1zm-3 0h-1v-1h1zm-3 0h-1v-1h1zm-3 0h-1v-1h1zm-3 0h-1v-1h1zm-3 0h-1v-1h1zm25-14c-1.654 0-3 1.346-3 3s1.346 3 3 3v8h-5v-2c0-.553-.448-1-1-1h-23.78c-.549-.609-1.337-1-2.22-1s-1.67.391-2.22 1h-17.78c-.552 0-1 .447-1 1v2h-5v-8c1.654 0 3-1.346 3-3s-1.346-3-3-3v-2h58z"/><path d="m4 49.5c0 .827.673 1.5 1.5 1.5s1.5-.673 1.5-1.5-.673-1.5-1.5-1.5-1.5.673-1.5 1.5zm2 0c0 .275-.224.5-.5.5s-.5-.225-.5-.5.224-.5.5-.5.5.225.5.5z"/><path d="m58.5 51c.827 0 1.5-.673 1.5-1.5s-.673-1.5-1.5-1.5-1.5.673-1.5 1.5.673 1.5 1.5 1.5zm0-2c.276 0 .5.225.5.5s-.224.5-.5.5-.5-.225-.5-.5.224-.5.5-.5z"/><path d="m38 47h4c.552 0 1-.447 1-1v-6c0-.553-.448-1-1-1h-4c-.552 0-1 .447-1 1v6c0 .553.448 1 1 1zm1-6h2v4h-2z"/><path d="m45 47h4c.552 0 1-.447 1-1v-6c0-.553-.448-1-1-1h-4c-.552 0-1 .447-1 1v6c0 .553.448 1 1 1zm1-6h2v4h-2z"/><path d="m52 47h4c.552 0 1-.447 1-1v-6c0-.553-.448-1-1-1h-4c-.552 0-1 .447-1 1v6c0 .553.448 1 1 1zm1-6h2v4h-2z"/><path d="m11 46h18c1.654 0 3-1.346 3-3v-2c0-1.654-1.346-3-3-3h-18c-1.654 0-3 1.346-3 3v2c0 1.654 1.346 3 3 3zm-1-5c0-.552.449-1 1-1h18c.551 0 1 .448 1 1v2c0 .552-.449 1-1 1h-18c-.551 0-1-.448-1-1z"/><path d="m33 45h2v2h-2z"/><path d="m33 42h2v2h-2z"/><path d="m33 39h2v2h-2z"/><path d="m61 16h1c.552 0 1-.448 1-1v-4c0-.552-.448-1-1-1h-60c-.552 0-1 .448-1 1v4c0 .552.448 1 1 1h1c.551 0 1 .449 1 1s-.449 1-1 1h-1c-.552 0-1 .448-1 1v10c0 .552.448 1 1 1h25c.552 0 1-.448 1-1v-2c0-.551.449-1 1-1s1 .449 1 1v2c0 .552.448 1 1 1h31c.552 0 1-.448 1-1v-10c0-.552-.448-1-1-1h-1c-.551 0-1-.449-1-1s.449-1 1-1zm-38 11v1h-1v-1zm-3 1h-1v-1h1zm-3 0h-1v-1h1zm-3 0h-1v-1h1zm-3 0h-1v-1h1zm15 0h-1v-1h1zm6-1h1v1h-1zm22 1h-1v-1h1zm-3 0h-1v-1h1zm-3 0h-1v-1h1zm-3 0h-1v-1h1zm-3 0h-1v-1h1zm-3 0h-1v-1h1zm-3 0h-1v-1h1zm25-8v8h-5v-2c0-.552-.448-1-1-1h-23.78c-.549-.609-1.337-1-2.22-1s-1.67.391-2.22 1h-17.78c-.552 0-1 .448-1 1v2h-5v-8c1.654 0 3-1.346 3-3s-1.346-3-3-3v-2h58v2c-1.654 0-3 1.346-3 3s1.346 3 3 3z"/><path d="m5.5 24c-.827 0-1.5.673-1.5 1.5s.673 1.5 1.5 1.5 1.5-.673 1.5-1.5-.673-1.5-1.5-1.5zm0 2c-.276 0-.5-.224-.5-.5s.224-.5.5-.5.5.224.5.5-.224.5-.5.5z"/><path d="m57 25.5c0 .827.673 1.5 1.5 1.5s1.5-.673 1.5-1.5-.673-1.5-1.5-1.5-1.5.673-1.5 1.5zm1.5-.5c.276 0 .5.224.5.5s-.224.5-.5.5-.5-.224-.5-.5.224-.5.5-.5z"/><path d="m42 15h-4c-.552 0-1 .448-1 1v6c0 .552.448 1 1 1h4c.552 0 1-.448 1-1v-6c0-.552-.448-1-1-1zm-1 6h-2v-4h2z"/><path d="m49 15h-4c-.552 0-1 .448-1 1v6c0 .552.448 1 1 1h4c.552 0 1-.448 1-1v-6c0-.552-.448-1-1-1zm-1 6h-2v-4h2z"/><path d="m57 16c0-.552-.448-1-1-1h-4c-.552 0-1 .448-1 1v6c0 .552.448 1 1 1h4c.552 0 1-.448 1-1zm-2 5h-2v-4h2z"/><path d="m29 14h-18c-1.654 0-3 1.346-3 3v2c0 1.654 1.346 3 3 3h18c1.654 0 3-1.346 3-3v-2c0-1.654-1.346-3-3-3zm1 5c0 .551-.449 1-1 1h-18c-.551 0-1-.449-1-1v-2c0-.551.449-1 1-1h18c.551 0 1 .449 1 1z"/><path d="m33 21h2v2h-2z"/><path d="m33 18h2v2h-2z"/><path d="m33 15h2v2h-2z"/></g></svg>
